<svg xmlns="http://www.w3.org/2000/svg" width="720" height="80" viewBox="0 0 720 80" role="img" aria-label="Achievements"><style>
.fl{animation:fl 6s ease-in-out infinite}
@keyframes fl{0%,100%{transform:translateY(0)}50%{transform:translateY(-6px)}}
.tw{animation:tw 4s ease-in-out infinite}
@keyframes tw{0%,100%{opacity:.12}50%{opacity:.95}}
.dash{animation:dash 7s linear infinite}
@keyframes dash{to{stroke-dashoffset:-100}}
@media (prefers-reduced-motion:reduce){*{animation:none!important}}
</style><defs>
<filter id="b4" x="-50%" y="-50%" width="200%" height="200%"><feGaussianBlur stdDeviation="4"/></filter>
<filter id="b6" x="-20%" y="-20%" width="140%" height="160%"><feGaussianBlur stdDeviation="6"/></filter>
<filter id="glow" x="-50%" y="-50%" width="200%" height="200%"><feGaussianBlur stdDeviation="9"/></filter>
<linearGradient id="face" x1="0" y1="0" x2="0" y2="1"><stop offset="0" stop-color="#F4FAFF"/><stop offset=".55" stop-color="#9BCDEF"/><stop offset="1" stop-color="#2E86C1"/></linearGradient>
<linearGradient id="card" x1="0" y1="0" x2="1" y2="0"><stop offset="0" stop-color="#061426"/><stop offset="1" stop-color="#0b2a4a"/></linearGradient>
</defs><rect x="1" y="1" width="718" height="78" rx="16" fill="url(#card)" stroke="#2E86C1" stroke-opacity=".4"/><g opacity="1"><g class="fl" style="animation-duration:5.5s;animation-delay:-1s"><polygon points="31.3,31.5 46.0,40.0 46.0,57.0 31.3,48.5" fill="#2E86C1"/><polygon points="46.0,40.0 60.7,31.5 60.7,48.5 46.0,57.0" fill="#1b5073"/><polygon points="46.0,23.0 60.7,31.5 46.0,40.0 31.3,31.5" fill="#70acd4"/><polyline points="31.3,31.5 46.0,23.0 60.7,31.5" fill="none" stroke="#c0daec" stroke-opacity=".85" stroke-width="0.80" stroke-linejoin="round"/><polyline points="31.3,31.5 46.0,40.0 60.7,31.5" fill="none" stroke="#c0daec" stroke-opacity=".4" stroke-width="0.80" stroke-linejoin="round"/><line x1="46" y1="40" x2="46" y2="57" stroke="#c0daec" stroke-opacity=".3" stroke-width="0.80"/><g transform="matrix(0.866,0.5,-0.866,0.5,46,31.5) scale(0.1462)"><path d="M-24 -38 H24 V-6 A24 24 0 0 1 -24 -6 Z" fill="#fff"/><path d="M-24 -30 H-40 V-20 A14 14 0 0 0 -24 -6 M24 -30 H40 V-20 A14 14 0 0 1 24 -6" stroke="#fff" stroke-width="9" stroke-linecap="round" stroke-linejoin="round" fill="none"/><path d="M0 18 V32 M-16 40 H16" stroke="#fff" stroke-width="9" stroke-linecap="round" stroke-linejoin="round" fill="none"/></g></g></g><defs><text id="t" x="84" y="53" font-family="'Segoe UI','SF Pro Display','Helvetica Neue',Roboto,Arial,sans-serif" font-weight="900" font-size="38" textLength="258.0" lengthAdjust="spacingAndGlyphs">Achievements</text></defs><use href="#t" x="4.8" y="4.8" fill="#0a2a47"/><use href="#t" x="4.0" y="4.0" fill="#0e3759"/><use href="#t" x="3.2" y="3.2" fill="#12456c"/><use href="#t" x="2.4" y="2.4" fill="#16537f"/><use href="#t" x="1.6" y="1.6" fill="#1a6192"/><use href="#t" x="0.8" y="0.8" fill="#1f6fa5"/><use href="#t" fill="url(#face)" stroke="#ffffff" stroke-opacity=".35" stroke-width=".6"/><defs><linearGradient id="ln" gradientUnits="userSpaceOnUse" x1="372.0" y1="0" x2="640" y2="0"><stop offset="0" stop-color="#5DADE2"/><stop offset="1" stop-color="#5DADE2" stop-opacity="0"/></linearGradient></defs><path d="M372.0 40 H640" stroke="url(#ln)" stroke-width="2"/><circle r="3" fill="#F5B041"><animateMotion dur="5s" repeatCount="indefinite" path="M372.0,40 L640,40"/></circle><g opacity="1"><g class="fl" style="animation-duration:6s;animation-delay:-2s"><polygon points="665.6,40.0 676.0,46.0 676.0,58.0 665.6,52.0" fill="#5DADE2"/><polygon points="676.0,46.0 686.4,40.0 686.4,52.0 676.0,58.0" fill="#376787"/><polygon points="676.0,34.0 686.4,40.0 676.0,46.0 665.6,40.0" fill="#90c7eb"/><polyline points="665.6,40.0 676.0,34.0 686.4,40.0" fill="none" stroke="#cee6f6" stroke-opacity=".85" stroke-width="0.80" stroke-linejoin="round"/><polyline points="665.6,40.0 676.0,46.0 686.4,40.0" fill="none" stroke="#cee6f6" stroke-opacity=".4" stroke-width="0.80" stroke-linejoin="round"/><line x1="676" y1="46" x2="676" y2="58" stroke="#cee6f6" stroke-opacity=".3" stroke-width="0.80"/></g></g><g opacity="1"><g class="fl" style="animation-duration:5s;animation-delay:-0s"><polygon points="693.9,28.5 700.0,32.0 700.0,39.0 693.9,35.5" fill="#85C1E9"/><polygon points="700.0,32.0 706.1,28.5 706.1,35.5 700.0,39.0" fill="#4f738b"/><polygon points="700.0,25.0 706.1,28.5 700.0,32.0 693.9,28.5" fill="#acd4f0"/><polyline points="693.9,28.5 700.0,25.0 706.1,28.5" fill="none" stroke="#daecf8" stroke-opacity=".85" stroke-width="0.80" stroke-linejoin="round"/><polyline points="693.9,28.5 700.0,32.0 706.1,28.5" fill="none" stroke="#daecf8" stroke-opacity=".4" stroke-width="0.80" stroke-linejoin="round"/><line x1="700" y1="32" x2="700" y2="39" stroke="#daecf8" stroke-opacity=".3" stroke-width="0.80"/></g></g></svg>