<svg xmlns="http://www.w3.org/2000/svg" width="72" height="92" viewBox="0 0 72 92" role="img" aria-label="Python for AI development"><style>
.fl{animation:fl 6s ease-in-out infinite}
@keyframes fl{0%,100%{transform:translateY(0)}50%{transform:translateY(-6px)}}
.tw{animation:tw 4s ease-in-out infinite}
@keyframes tw{0%,100%{opacity:.12}50%{opacity:.95}}
.dash{animation:dash 7s linear infinite}
@keyframes dash{to{stroke-dashoffset:-100}}
@media (prefers-reduced-motion:reduce){*{animation:none!important}}
</style><defs>
<filter id="b4" x="-50%" y="-50%" width="200%" height="200%"><feGaussianBlur stdDeviation="4"/></filter>
<filter id="b6" x="-20%" y="-20%" width="140%" height="160%"><feGaussianBlur stdDeviation="6"/></filter>
<filter id="glow" x="-50%" y="-50%" width="200%" height="200%"><feGaussianBlur stdDeviation="9"/></filter>
<linearGradient id="face" x1="0" y1="0" x2="0" y2="1"><stop offset="0" stop-color="#F4FAFF"/><stop offset=".55" stop-color="#9BCDEF"/><stop offset="1" stop-color="#2E86C1"/></linearGradient>
<linearGradient id="card" x1="0" y1="0" x2="1" y2="0"><stop offset="0" stop-color="#061426"/><stop offset="1" stop-color="#0b2a4a"/></linearGradient>
</defs><g transform="translate(-14,-6)"><g opacity="1"><ellipse cx="50" cy="90" rx="30.9" ry="5.8" fill="#000" opacity=".38" filter="url(#b4)"/><g class="fl" style="animation-duration:5.6s;animation-delay:-0s"><polygon points="20.6,29.0 50.0,46.0 50.0,80.0 20.6,63.0" fill="#D9822B"/><polygon points="50.0,46.0 79.4,29.0 79.4,63.0 50.0,80.0" fill="#824e19"/><polygon points="50.0,12.0 79.4,29.0 50.0,46.0 20.6,29.0" fill="#e5aa6e"/><polyline points="20.6,29.0 50.0,12.0 79.4,29.0" fill="none" stroke="#f3d9bf" stroke-opacity=".85" stroke-width="0.89" stroke-linejoin="round"/><polyline points="20.6,29.0 50.0,46.0 79.4,29.0" fill="none" stroke="#f3d9bf" stroke-opacity=".4" stroke-width="0.89" stroke-linejoin="round"/><line x1="50" y1="46" x2="50" y2="80" stroke="#f3d9bf" stroke-opacity=".3" stroke-width="0.89"/><g transform="matrix(0.866,0.5,-0.866,0.5,50,29.0) scale(0.2924)"><rect x="-42" y="-34" width="84" height="68" rx="9" stroke="#fff" stroke-width="9" stroke-linecap="round" stroke-linejoin="round" fill="none"/><path d="M-26 -14 L-8 2 L-26 18 M2 20 H26" stroke="#fff" stroke-width="9" stroke-linecap="round" stroke-linejoin="round" fill="none"/></g></g></g></g></svg>